<svg width="35" height="35" viewBox="0 0 35 35" fill="none" xmlns="http://www.w3.org/2000/svg">
<rect x="0.5" y="0.931396" width="34" height="34" rx="8" fill="#313030"/>
<path d="M12.9167 9.6814H11.0833C10.0708 9.6814 9.25 10.5022 9.25 11.5147V13.3481" stroke="white" stroke-width="1.4" stroke-linecap="round" stroke-linejoin="round"/>
<path d="M22.083 9.6814H23.9163C24.9289 9.6814 25.7497 10.5022 25.7497 11.5147V13.3481" stroke="white" stroke-width="1.4" stroke-linecap="round" stroke-linejoin="round"/>
<path d="M21.167 14.2648V16.0981" stroke="white" stroke-width="1.4" stroke-linecap="round" stroke-linejoin="round"/>
<path d="M13.833 14.2648V16.0981" stroke="white" stroke-width="1.4" stroke-linecap="round" stroke-linejoin="round"/>
<path d="M14.75 21.598C14.75 21.598 15.6667 22.5147 17.5 22.5147C19.3333 22.5147 20.25 21.598 20.25 21.598" stroke="white" stroke-width="1.4" stroke-linecap="round" stroke-linejoin="round"/>
<path d="M17.4997 14.2648V18.8481H16.583" stroke="white" stroke-width="1.4" stroke-linecap="round" stroke-linejoin="round"/>
<path d="M12.9167 26.1814H11.0833C10.0708 26.1814 9.25 25.3607 9.25 24.3481V22.5148" stroke="white" stroke-width="1.4" stroke-linecap="round" stroke-linejoin="round"/>
<path d="M22.083 26.1814H23.9163C24.9289 26.1814 25.7497 25.3607 25.7497 24.3481V22.5148" stroke="white" stroke-width="1.4" stroke-linecap="round" stroke-linejoin="round"/>
</svg>
