<svg width="35" height="35" viewBox="0 0 35 35" fill="none" xmlns="http://www.w3.org/2000/svg">
<rect x="0.324219" y="0.935791" width="34" height="34" rx="8" fill="#313030"/>
<path d="M24.4467 19.5399H20.7434C18.9009 19.5399 18.0117 18.6874 18.0117 16.9274V10.694C18.0117 8.93404 18.9101 8.08154 20.7434 8.08154H24.4467C26.2892 8.08154 27.1784 8.93404 27.1784 10.694V16.9274C27.1784 18.6874 26.2801 19.5399 24.4467 19.5399ZM20.7434 9.45654C19.5792 9.45654 19.3867 9.76821 19.3867 10.694V16.9274C19.3867 17.8532 19.5792 18.1649 20.7434 18.1649H24.4467C25.6109 18.1649 25.8034 17.8532 25.8034 16.9274V10.694C25.8034 9.76821 25.6109 9.45654 24.4467 9.45654H20.7434Z" fill="white"/>
<path d="M24.4467 27.79H20.7434C18.9009 27.79 18.0117 26.9375 18.0117 25.1775V23.5275C18.0117 21.7675 18.9101 20.915 20.7434 20.915H24.4467C26.2892 20.915 27.1784 21.7675 27.1784 23.5275V25.1775C27.1784 26.9375 26.2801 27.79 24.4467 27.79ZM20.7434 22.29C19.5792 22.29 19.3867 22.6017 19.3867 23.5275V25.1775C19.3867 26.1034 19.5792 26.415 20.7434 26.415H24.4467C25.6109 26.415 25.8034 26.1034 25.8034 25.1775V23.5275C25.8034 22.6017 25.6109 22.29 24.4467 22.29H20.7434Z" fill="white"/>
<path d="M13.9047 27.7899H10.2014C8.35889 27.7899 7.46973 26.9374 7.46973 25.1774V18.944C7.46973 17.184 8.36806 16.3315 10.2014 16.3315H13.9047C15.7472 16.3315 16.6364 17.184 16.6364 18.944V25.1774C16.6364 26.9374 15.7381 27.7899 13.9047 27.7899ZM10.2014 17.7065C9.03723 17.7065 8.84473 18.0182 8.84473 18.944V25.1774C8.84473 26.1032 9.03723 26.4149 10.2014 26.4149H13.9047C15.0689 26.4149 15.2614 26.1032 15.2614 25.1774V18.944C15.2614 18.0182 15.0689 17.7065 13.9047 17.7065H10.2014Z" fill="white"/>
<path d="M13.9047 14.9565H10.2014C8.35889 14.9565 7.46973 14.104 7.46973 12.344V10.694C7.46973 8.93404 8.36806 8.08154 10.2014 8.08154H13.9047C15.7472 8.08154 16.6364 8.93404 16.6364 10.694V12.344C16.6364 14.104 15.7381 14.9565 13.9047 14.9565ZM10.2014 9.45654C9.03723 9.45654 8.84473 9.76821 8.84473 10.694V12.344C8.84473 13.2699 9.03723 13.5815 10.2014 13.5815H13.9047C15.0689 13.5815 15.2614 13.2699 15.2614 12.344V10.694C15.2614 9.76821 15.0689 9.45654 13.9047 9.45654H10.2014Z" fill="white"/>
</svg>
