<svg width="38" height="38" viewBox="0 0 38 38" fill="none" xmlns="http://www.w3.org/2000/svg">
<circle cx="19.3152" cy="19.344" r="18.3582" fill="white" fill-opacity="0.15"/>
<path fill-rule="evenodd" clip-rule="evenodd" d="M15.6534 10.5142C16.6006 10.4706 16.9027 10.4609 19.3156 10.4609C21.7285 10.4609 22.0306 10.4714 22.977 10.5142C23.9234 10.557 24.5695 10.708 25.1348 10.9269C25.7267 11.1506 26.2637 11.5002 26.7078 11.9525C27.1601 12.3958 27.5089 12.932 27.7318 13.5248C27.9515 14.09 28.1017 14.7361 28.1453 15.6809C28.1889 16.6298 28.1986 16.9318 28.1986 19.3439C28.1986 21.7569 28.1881 22.0589 28.1453 23.0061C28.1025 23.951 27.9515 24.597 27.7318 25.1623C27.5089 25.7551 27.1595 26.2922 26.7078 26.7362C26.2637 27.1884 25.7267 27.5373 25.1348 27.7601C24.5695 27.9798 23.9234 28.13 22.9786 28.1736C22.0306 28.2172 21.7285 28.2269 19.3156 28.2269C16.9027 28.2269 16.6006 28.2164 15.6534 28.1736C14.7086 28.1308 14.0625 27.9798 13.4972 27.7601C12.9044 27.5372 12.3673 27.1878 11.9233 26.7362C11.4714 26.2926 11.1217 25.7557 10.8986 25.1631C10.6797 24.5978 10.5295 23.9518 10.4859 23.0069C10.4423 22.0581 10.4326 21.756 10.4326 19.3439C10.4326 16.931 10.4431 16.629 10.4859 15.6825C10.5287 14.7361 10.6797 14.09 10.8986 13.5248C11.122 12.9321 11.472 12.3953 11.9241 11.9517C12.3675 11.4998 12.9041 11.1501 13.4964 10.9269C14.0617 10.708 14.7078 10.5578 15.6526 10.5142H15.6534ZM22.9051 12.1132C21.9684 12.0704 21.6874 12.0615 19.3156 12.0615C16.9438 12.0615 16.6628 12.0704 15.7261 12.1132C14.8596 12.1527 14.3896 12.2973 14.0763 12.4192C13.662 12.5807 13.3656 12.7721 13.0547 13.083C12.76 13.3698 12.5332 13.7188 12.3909 14.1046C12.269 14.4179 12.1244 14.8879 12.0849 15.7544C12.0421 16.6911 12.0332 16.9722 12.0332 19.3439C12.0332 21.7157 12.0421 21.9967 12.0849 22.9334C12.1244 23.7999 12.269 24.2699 12.3909 24.5833C12.533 24.9685 12.76 25.3181 13.0547 25.6048C13.3414 25.8996 13.6911 26.1265 14.0763 26.2686C14.3896 26.3905 14.8596 26.5351 15.7261 26.5747C16.6628 26.6175 16.943 26.6263 19.3156 26.6263C21.6882 26.6263 21.9684 26.6175 22.9051 26.5747C23.7716 26.5351 24.2416 26.3905 24.5549 26.2686C24.9692 26.1071 25.2656 25.9157 25.5765 25.6048C25.8712 25.3181 26.0982 24.9685 26.2403 24.5833C26.3622 24.2699 26.5068 23.7999 26.5463 22.9334C26.5891 21.9967 26.598 21.7157 26.598 19.3439C26.598 16.9722 26.5891 16.6911 26.5463 15.7544C26.5068 14.8879 26.3622 14.4179 26.2403 14.1046C26.0788 13.6903 25.8874 13.3939 25.5765 13.083C25.2897 12.7883 24.9407 12.5615 24.5549 12.4192C24.2416 12.2973 23.7716 12.1527 22.9051 12.1132ZM18.181 22.0823C18.8146 22.3461 19.5202 22.3817 20.1772 22.183C20.8342 21.9844 21.4018 21.5638 21.7831 20.9931C22.1645 20.4224 22.3359 19.7371 22.268 19.0541C22.2002 18.3711 21.8973 17.7328 21.4112 17.2483C21.1013 16.9386 20.7265 16.7015 20.314 16.554C19.9014 16.4065 19.4613 16.3523 19.0253 16.3953C18.5893 16.4383 18.1682 16.5774 17.7924 16.8027C17.4166 17.0279 17.0955 17.3337 16.852 17.698C16.6086 18.0623 16.449 18.476 16.3846 18.9094C16.3203 19.3428 16.3528 19.7851 16.4799 20.2044C16.607 20.6237 16.8255 21.0096 17.1197 21.3343C17.4138 21.659 17.7763 21.9145 18.181 22.0823ZM16.087 16.1154C16.511 15.6914 17.0144 15.3551 17.5683 15.1256C18.1223 14.8961 18.716 14.778 19.3156 14.778C19.9152 14.778 20.5089 14.8961 21.0629 15.1256C21.6168 15.3551 22.1202 15.6914 22.5442 16.1154C22.9681 16.5393 23.3045 17.0427 23.5339 17.5966C23.7634 18.1506 23.8815 18.7443 23.8815 19.3439C23.8815 19.9435 23.7634 20.5372 23.5339 21.0912C23.3045 21.6452 22.9681 22.1485 22.5442 22.5725C21.6879 23.4287 20.5265 23.9098 19.3156 23.9098C18.1047 23.9098 16.9433 23.4287 16.087 22.5725C15.2308 21.7162 14.7497 20.5549 14.7497 19.3439C14.7497 18.133 15.2308 16.9716 16.087 16.1154ZM24.8941 15.458C24.9992 15.3589 25.0833 15.2397 25.1415 15.1075C25.1996 14.9753 25.2307 14.8328 25.2328 14.6884C25.2349 14.544 25.208 14.4006 25.1537 14.2667C25.0994 14.1329 25.0188 14.0113 24.9167 13.9092C24.8146 13.807 24.693 13.7264 24.5591 13.6721C24.4253 13.6178 24.2819 13.591 24.1375 13.5931C23.9931 13.5952 23.8505 13.6262 23.7183 13.6844C23.5861 13.7426 23.467 13.8267 23.3678 13.9318C23.1751 14.1361 23.0696 14.4075 23.0737 14.6884C23.0778 14.9692 23.1912 15.2375 23.3898 15.4361C23.5884 15.6347 23.8566 15.7481 24.1375 15.7522C24.4184 15.7563 24.6898 15.6508 24.8941 15.458Z" fill="white"/>
</svg>
