<svg width="25" height="25" viewBox="0 0 25 25" fill="none" xmlns="http://www.w3.org/2000/svg">
<path d="M12.4999 15.0137C10.3699 15.0137 8.62988 13.2837 8.62988 11.1437C8.62988 9.00369 10.3699 7.28369 12.4999 7.28369C14.6299 7.28369 16.3699 9.01369 16.3699 11.1537C16.3699 13.2937 14.6299 15.0137 12.4999 15.0137ZM12.4999 8.78369C11.1999 8.78369 10.1299 9.84369 10.1299 11.1537C10.1299 12.4637 11.1899 13.5237 12.4999 13.5237C13.8099 13.5237 14.8699 12.4637 14.8699 11.1537C14.8699 9.84369 13.7999 8.78369 12.4999 8.78369Z" fill="url(#paint0_linear_2002_4476)"/>
<path d="M12.4997 23.6038C11.0197 23.6038 9.52969 23.0438 8.36969 21.9338C5.41969 19.0938 2.15969 14.5637 3.38969 9.17375C4.49969 4.28375 8.76969 2.09375 12.4997 2.09375C12.4997 2.09375 12.4997 2.09375 12.5097 2.09375C16.2397 2.09375 20.5097 4.28375 21.6197 9.18375C22.8397 14.5737 19.5797 19.0938 16.6297 21.9338C15.4697 23.0438 13.9797 23.6038 12.4997 23.6038ZM12.4997 3.59375C9.58969 3.59375 5.84969 5.14375 4.85969 9.50375C3.77969 14.2137 6.73969 18.2738 9.41969 20.8438C11.1497 22.5138 13.8597 22.5138 15.5897 20.8438C18.2597 18.2738 21.2197 14.2137 20.1597 9.50375C19.1597 5.14375 15.4097 3.59375 12.4997 3.59375Z" fill="url(#paint1_linear_2002_4476)"/>
<defs>
<linearGradient id="paint0_linear_2002_4476" x1="12.4999" y1="7.28369" x2="12.4999" y2="15.0137" gradientUnits="userSpaceOnUse">
<stop stop-color="#1997E1"/>
<stop offset="1" stop-color="#2CB1FF"/>
</linearGradient>
<linearGradient id="paint1_linear_2002_4476" x1="12.5028" y1="2.09375" x2="12.5028" y2="23.6038" gradientUnits="userSpaceOnUse">
<stop stop-color="#1997E1"/>
<stop offset="1" stop-color="#2CB1FF"/>
</linearGradient>
</defs>
</svg>
