<svg width="35" height="35" viewBox="0 0 35 35" fill="none" xmlns="http://www.w3.org/2000/svg">
<rect x="0.5" y="0.931396" width="34" height="34" rx="8" fill="#22B660"/>
<path d="M22.762 27.7855H12.2387C9.95616 27.7855 8.10449 25.9338 8.10449 23.6513V17.4822C8.10449 15.1997 9.95616 13.348 12.2387 13.348H22.762C25.0445 13.348 26.8962 15.1997 26.8962 17.4822V18.8022C26.8962 19.178 26.5845 19.4897 26.2087 19.4897H24.357C24.0362 19.4897 23.7428 19.6089 23.532 19.8289L23.5228 19.838C23.2662 20.0855 23.147 20.4247 23.1745 20.773C23.2295 21.378 23.807 21.8638 24.467 21.8638H26.2087C26.5845 21.8638 26.8962 22.1755 26.8962 22.5513V23.6422C26.8962 25.9338 25.0445 27.7855 22.762 27.7855ZM12.2387 14.723C10.717 14.723 9.47949 15.9605 9.47949 17.4822V23.6513C9.47949 25.173 10.717 26.4105 12.2387 26.4105H22.762C24.2837 26.4105 25.5212 25.173 25.5212 23.6513V23.248H24.467C23.0828 23.248 21.9095 22.2213 21.7995 20.9013C21.7262 20.1497 22.0012 19.4072 22.5512 18.8664C23.0278 18.3805 23.6695 18.1147 24.357 18.1147H25.5212V17.4822C25.5212 15.9605 24.2837 14.723 22.762 14.723H12.2387Z" fill="white"/>
<path d="M8.79199 18.9948C8.41616 18.9948 8.10449 18.6831 8.10449 18.3073V14.1182C8.10449 12.7523 8.96616 11.5148 10.2403 11.0289L17.5187 8.27894C18.2703 7.99478 19.1045 8.09565 19.7553 8.55399C20.4153 9.01232 20.8003 9.75481 20.8003 10.5523V14.0356C20.8003 14.4115 20.4887 14.7231 20.1128 14.7231C19.737 14.7231 19.4253 14.4115 19.4253 14.0356V10.5523C19.4253 10.204 19.2603 9.88314 18.967 9.68147C18.6737 9.4798 18.3253 9.43396 17.9953 9.5623L10.717 12.3123C9.97449 12.5965 9.47033 13.3207 9.47033 14.1182V18.3073C9.47949 18.6923 9.16783 18.9948 8.79199 18.9948Z" fill="white"/>
<path d="M24.4663 23.2481C23.0821 23.2481 21.9088 22.2214 21.7988 20.9014C21.7254 20.1406 22.0004 19.3981 22.5504 18.8572C23.0179 18.3806 23.6596 18.1147 24.3471 18.1147H26.2538C27.1613 18.1422 27.8579 18.8572 27.8579 19.7372V21.6256C27.8579 22.5056 27.1613 23.2206 26.2813 23.2481H24.4663ZM26.2354 19.4897H24.3563C24.0354 19.4897 23.7421 19.6089 23.5313 19.8289C23.2654 20.0856 23.1371 20.4339 23.1738 20.7822C23.2288 21.3872 23.8063 21.8731 24.4663 21.8731H26.2629C26.3821 21.8731 26.4921 21.7631 26.4921 21.6256V19.7372C26.4921 19.5997 26.3821 19.4989 26.2354 19.4897Z" fill="white"/>
<path d="M19.3337 18.6189H12.917C12.5412 18.6189 12.2295 18.3072 12.2295 17.9314C12.2295 17.5556 12.5412 17.2439 12.917 17.2439H19.3337C19.7095 17.2439 20.0212 17.5556 20.0212 17.9314C20.0212 18.3072 19.7095 18.6189 19.3337 18.6189Z" fill="white"/>
</svg>
