<svg width="35" height="35" viewBox="0 0 35 35" fill="none" xmlns="http://www.w3.org/2000/svg">
<rect x="0.324219" y="0.935791" width="34" height="34" rx="8" fill="#E09428"/>
<path d="M24.667 24.5909C24.4929 24.5909 24.3187 24.5267 24.1812 24.3892L19.6437 19.8517C19.3779 19.5859 19.3779 19.1459 19.6437 18.88C19.9095 18.6142 20.3495 18.6142 20.6154 18.88L25.1529 23.4176C25.4187 23.6834 25.4187 24.1234 25.1529 24.3892C25.0154 24.5267 24.8412 24.5909 24.667 24.5909Z" fill="white"/>
<path d="M15.592 23.8299C14.9229 23.8299 14.2812 23.5641 13.8137 23.0874L9.92703 19.2007C8.9462 18.2199 8.9462 16.6157 9.92703 15.6349L16.4079 9.15408C17.3887 8.17325 18.9929 8.17325 19.9737 9.15408L23.8604 13.0407C24.337 13.5174 24.6029 14.1499 24.6029 14.8191C24.6029 15.4882 24.337 16.1299 23.8604 16.5974L17.3795 23.0782C16.9029 23.5732 16.2704 23.8299 15.592 23.8299ZM18.1862 9.79573C17.8929 9.79573 17.5995 9.90573 17.3795 10.1349L10.8987 16.6157C10.4495 17.0649 10.4495 17.7891 10.8987 18.2382L14.7854 22.1249C15.2162 22.5557 15.9679 22.5557 16.4079 22.1249L22.8887 15.6441C23.1087 15.4241 23.2279 15.1399 23.2279 14.8374C23.2279 14.5349 23.1087 14.2416 22.8887 14.0307L19.002 10.1441C18.7729 9.90574 18.4795 9.79573 18.1862 9.79573Z" fill="white"/>
<path d="M13.6572 26.8733H8.15723C7.78139 26.8733 7.46973 26.5616 7.46973 26.1858C7.46973 25.81 7.78139 25.4983 8.15723 25.4983H13.6572C14.0331 25.4983 14.3447 25.81 14.3447 26.1858C14.3447 26.5616 14.0331 26.8733 13.6572 26.8733Z" fill="white"/>
<path d="M18.8184 21.364C18.6442 21.364 18.4701 21.2998 18.3326 21.1623L11.8517 14.6815C11.5859 14.4157 11.5859 13.9757 11.8517 13.7099C12.1176 13.444 12.5575 13.444 12.8234 13.7099L19.3042 20.1907C19.5701 20.4565 19.5701 20.8965 19.3042 21.1623C19.1759 21.2998 18.9926 21.364 18.8184 21.364Z" fill="white"/>
</svg>
