<svg width="35" height="35" viewBox="0 0 35 35" fill="none" xmlns="http://www.w3.org/2000/svg">
<rect x="0.324219" y="0.935791" width="34" height="34" rx="8" fill="#DE4C3E"/>
<path d="M17.3428 25.7551C15.2069 25.7551 13.0711 25.4159 11.0453 24.7375C10.2753 24.4717 9.68859 23.9309 9.43192 23.225C9.16609 22.5192 9.25776 21.7401 9.67942 21.0434L10.7336 19.2925C10.9536 18.9259 11.1553 18.1925 11.1553 17.7617V15.1125C11.1553 11.7025 13.9328 8.92505 17.3428 8.92505C20.7528 8.92505 23.5303 11.7025 23.5303 15.1125V17.7617C23.5303 18.1834 23.7319 18.9259 23.9519 19.3017L24.9969 21.0434C25.3911 21.7034 25.4644 22.5009 25.1986 23.225C24.9328 23.9492 24.3553 24.4992 23.6311 24.7375C21.6144 25.4159 19.4786 25.7551 17.3428 25.7551ZM17.3428 10.3C14.6936 10.3 12.5303 12.4542 12.5303 15.1125V17.7617C12.5303 18.4309 12.2553 19.4209 11.9161 19.9984L10.8619 21.7492C10.6603 22.0884 10.6053 22.4459 10.7244 22.7484C10.8344 23.0601 11.1094 23.2984 11.4853 23.4267C15.3169 24.71 19.3778 24.71 23.2094 23.4267C23.5394 23.3167 23.7961 23.0692 23.9153 22.7392C24.0344 22.4092 24.0069 22.0517 23.8236 21.7492L22.7694 19.9984C22.4211 19.4025 22.1553 18.4217 22.1553 17.7526V15.1125C22.1553 12.4542 20.0011 10.3 17.3428 10.3Z" fill="white"/>
<path d="M19.0475 10.5476C18.9833 10.5476 18.9191 10.5384 18.855 10.5201C18.5891 10.4467 18.3325 10.3917 18.085 10.3551C17.3058 10.2542 16.5541 10.3092 15.8483 10.5201C15.5916 10.6026 15.3166 10.5201 15.1425 10.3276C14.9683 10.1351 14.9133 9.86008 15.0141 9.61258C15.39 8.65008 16.3066 8.01758 17.3516 8.01758C18.3966 8.01758 19.3133 8.64091 19.6891 9.61258C19.7808 9.86008 19.735 10.1351 19.5608 10.3276C19.4233 10.4742 19.2308 10.5476 19.0475 10.5476Z" fill="white"/>
<path d="M17.3428 27.845C16.4353 27.845 15.5553 27.4783 14.9136 26.8366C14.2719 26.195 13.9053 25.315 13.9053 24.4075H15.2803C15.2803 24.9483 15.5003 25.48 15.8853 25.865C16.2703 26.25 16.8019 26.47 17.3428 26.47C18.4794 26.47 19.4053 25.5441 19.4053 24.4075H20.7803C20.7803 26.305 19.2403 27.845 17.3428 27.845Z" fill="white"/>
</svg>
