<svg width="35" height="35" viewBox="0 0 35 35" fill="none" xmlns="http://www.w3.org/2000/svg">
<rect x="0.5" y="0.931396" width="34" height="34" rx="8" fill="#23AAEB"/>
<path d="M13.4034 19.751V19.6303C13.4058 19.216 13.4425 18.8857 13.5135 18.6395C13.5869 18.3933 13.6934 18.1944 13.8331 18.0429C13.9728 17.8914 14.1409 17.7541 14.3374 17.631C14.4841 17.5363 14.6155 17.438 14.7315 17.3362C14.8475 17.2344 14.9399 17.122 15.0085 16.9989C15.0772 16.8734 15.1115 16.7337 15.1115 16.5798C15.1115 16.4165 15.0724 16.2733 14.9943 16.1501C14.9162 16.027 14.8108 15.9323 14.6783 15.8661C14.5481 15.7998 14.4036 15.7666 14.245 15.7666C14.0911 15.7666 13.9455 15.801 13.8082 15.8696C13.6709 15.9359 13.5585 16.0353 13.4709 16.1679C13.3833 16.2981 13.3359 16.4603 13.3288 16.6544H11.88C11.8918 16.1809 12.0054 15.7903 12.2209 15.4825C12.4363 15.1724 12.7216 14.9416 13.0767 14.7901C13.4318 14.6362 13.8236 14.5592 14.2521 14.5592C14.7232 14.5592 15.1399 14.6374 15.5021 14.7936C15.8643 14.9475 16.1484 15.1712 16.3544 15.4648C16.5604 15.7583 16.6634 16.1123 16.6634 16.5266C16.6634 16.8036 16.6172 17.0498 16.5249 17.2652C16.4349 17.4783 16.3082 17.6677 16.1449 17.8334C15.9815 17.9967 15.7886 18.1447 15.5661 18.2773C15.379 18.3885 15.2251 18.5045 15.1044 18.6253C14.986 18.746 14.8973 18.8857 14.8381 19.0443C14.7813 19.2029 14.7517 19.3983 14.7493 19.6303V19.751H13.4034ZM14.1065 22.0237C13.8698 22.0237 13.6674 21.9409 13.4993 21.7751C13.3336 21.6071 13.2519 21.4058 13.2543 21.1715C13.2519 20.9394 13.3336 20.7406 13.4993 20.5749C13.6674 20.4091 13.8698 20.3263 14.1065 20.3263C14.3314 20.3263 14.5291 20.4091 14.6996 20.5749C14.87 20.7406 14.9564 20.9394 14.9588 21.1715C14.9564 21.3277 14.915 21.4709 14.8345 21.6011C14.7564 21.729 14.6534 21.832 14.5256 21.9101C14.3977 21.9858 14.258 22.0237 14.1065 22.0237Z" fill="white"/>
<path d="M20.2497 27.7856H14.7497C9.77217 27.7856 7.64551 25.6589 7.64551 20.6814V15.1814C7.64551 10.2039 9.77217 8.07727 14.7497 8.07727H19.333C19.7088 8.07727 20.0205 8.38894 20.0205 8.76477C20.0205 9.1406 19.7088 9.45227 19.333 9.45227H14.7497C10.5238 9.45227 9.02051 10.9556 9.02051 15.1814V20.6814C9.02051 24.9073 10.5238 26.4106 14.7497 26.4106H20.2497C24.4755 26.4106 25.9788 24.9073 25.9788 20.6814V16.0981C25.9788 15.7223 26.2905 15.4106 26.6663 15.4106C27.0422 15.4106 27.3538 15.7223 27.3538 16.0981V20.6814C27.3538 25.6589 25.2272 27.7856 20.2497 27.7856Z" fill="white"/>
<path d="M26.6663 16.7843H22.9997C19.8647 16.7843 18.6455 15.5651 18.6455 12.4301V8.76342C18.6455 8.48842 18.8105 8.23175 19.0672 8.13092C19.3238 8.02092 19.6172 8.08508 19.8188 8.27758L27.1522 15.6109C27.3447 15.8034 27.4088 16.1059 27.2988 16.3626C27.1888 16.6193 26.9413 16.7843 26.6663 16.7843ZM20.0205 10.4226V12.4301C20.0205 14.7951 20.6347 15.4093 22.9997 15.4093H25.0072L20.0205 10.4226Z" fill="white"/>
</svg>
