<svg width="64" height="64" viewBox="0 0 64 64" fill="none" xmlns="http://www.w3.org/2000/svg">
<rect width="64" height="64" rx="32" fill="url(#paint0_linear_1287_40710)"/>
<path d="M42.5752 21.3651C41.1998 19.9762 39.5617 18.875 37.7565 18.1256C35.9512 17.3762 34.0148 16.9936 32.0602 17.0001C23.8702 17.0001 17.1952 23.6751 17.1952 31.8651C17.1952 34.4901 17.8852 37.0401 19.1752 39.2901L17.0752 47.0001L24.9502 44.9301C27.1252 46.1151 29.5702 46.7451 32.0602 46.7451C40.2502 46.7451 46.9252 40.0701 46.9252 31.8801C46.9252 27.9051 45.3802 24.1701 42.5752 21.3651ZM32.0602 44.2251C29.8402 44.2251 27.6652 43.6251 25.7602 42.5001L25.3102 42.2301L20.6302 43.4601L21.8752 38.9001L21.5752 38.4351C20.3415 36.4657 19.6866 34.189 19.6852 31.8651C19.6852 25.0551 25.2352 19.5051 32.0452 19.5051C35.3452 19.5051 38.4502 20.7951 40.7752 23.1351C41.9266 24.2809 42.8391 25.6439 43.4596 27.1451C44.0802 28.6463 44.3965 30.2557 44.3902 31.8801C44.4202 38.6901 38.8702 44.2251 32.0602 44.2251ZM38.8402 34.9851C38.4652 34.8051 36.6352 33.9051 36.3052 33.7701C35.9602 33.6501 35.7202 33.5901 35.4652 33.9501C35.2102 34.3251 34.5052 35.1651 34.2952 35.4051C34.0852 35.6601 33.8602 35.6901 33.4852 35.4951C33.1102 35.3151 31.9102 34.9101 30.5002 33.6501C29.3902 32.6601 28.6552 31.4451 28.4302 31.0701C28.2202 30.6951 28.4002 30.5001 28.5952 30.3051C28.7602 30.1401 28.9702 29.8701 29.1502 29.6601C29.3302 29.4501 29.4052 29.2851 29.5252 29.0451C29.6452 28.7901 29.5852 28.5801 29.4952 28.4001C29.4052 28.2201 28.6552 26.3901 28.3552 25.6401C28.0552 24.9201 27.7402 25.0101 27.5152 24.9951H26.7952C26.5402 24.9951 26.1502 25.0851 25.8052 25.4601C25.4752 25.8351 24.5152 26.7351 24.5152 28.5651C24.5152 30.3951 25.8502 32.1651 26.0302 32.4051C26.2102 32.6601 28.6552 36.4101 32.3752 38.0151C33.2602 38.4051 33.9502 38.6301 34.4902 38.7951C35.3752 39.0801 36.1852 39.0351 36.8302 38.9451C37.5502 38.8401 39.0352 38.0451 39.3352 37.1751C39.6502 36.3051 39.6502 35.5701 39.5452 35.4051C39.4402 35.2401 39.2152 35.1651 38.8402 34.9851Z" fill="white"/>
<defs>
<linearGradient id="paint0_linear_1287_40710" x1="32" y1="0" x2="32" y2="64" gradientUnits="userSpaceOnUse">
<stop stop-color="#1997E1"/>
<stop offset="1" stop-color="#2CB1FF"/>
</linearGradient>
</defs>
</svg>
