<svg width="35" height="35" viewBox="0 0 35 35" fill="none" xmlns="http://www.w3.org/2000/svg">
<rect x="0.5" y="0.931396" width="34" height="34" rx="8" fill="#23AAEB"/>
<path d="M22.6514 15.7498H17.8389C17.463 15.7498 17.1514 15.4381 17.1514 15.0623C17.1514 14.6864 17.463 14.3748 17.8389 14.3748H22.6514C23.0272 14.3748 23.3389 14.6864 23.3389 15.0623C23.3389 15.4381 23.0364 15.7498 22.6514 15.7498Z" fill="white"/>
<path d="M13.027 16.4464C12.8528 16.4464 12.6787 16.3823 12.5412 16.2448L11.8537 15.5573C11.5878 15.2914 11.5878 14.8514 11.8537 14.5856C12.1195 14.3198 12.5595 14.3198 12.8253 14.5856L13.027 14.7873L14.6037 13.2106C14.8695 12.9448 15.3095 12.9448 15.5753 13.2106C15.8412 13.4764 15.8412 13.9164 15.5753 14.1823L13.5128 16.2448C13.3845 16.3731 13.2103 16.4464 13.027 16.4464Z" fill="white"/>
<path d="M22.6514 22.1664H17.8389C17.463 22.1664 17.1514 21.8547 17.1514 21.4789C17.1514 21.103 17.463 20.7914 17.8389 20.7914H22.6514C23.0272 20.7914 23.3389 21.103 23.3389 21.4789C23.3389 21.8547 23.0364 22.1664 22.6514 22.1664Z" fill="white"/>
<path d="M13.027 22.8631C12.8528 22.8631 12.6787 22.7989 12.5412 22.6614L11.8537 21.9739C11.5878 21.7081 11.5878 21.2681 11.8537 21.0022C12.1195 20.7364 12.5595 20.7364 12.8253 21.0022L13.027 21.2039L14.6037 19.6272C14.8695 19.3614 15.3095 19.3614 15.5753 19.6272C15.8412 19.8931 15.8412 20.3331 15.5753 20.5989L13.5128 22.6614C13.3845 22.7897 13.2103 22.8631 13.027 22.8631Z" fill="white"/>
<path d="M20.2497 27.7856H14.7497C9.77217 27.7856 7.64551 25.6589 7.64551 20.6814V15.1814C7.64551 10.2039 9.77217 8.07727 14.7497 8.07727H20.2497C25.2272 8.07727 27.3538 10.2039 27.3538 15.1814V20.6814C27.3538 25.6589 25.2272 27.7856 20.2497 27.7856ZM14.7497 9.45227C10.5238 9.45227 9.02051 10.9556 9.02051 15.1814V20.6814C9.02051 24.9073 10.5238 26.4106 14.7497 26.4106H20.2497C24.4755 26.4106 25.9788 24.9073 25.9788 20.6814V15.1814C25.9788 10.9556 24.4755 9.45227 20.2497 9.45227H14.7497Z" fill="white"/>
</svg>
