<svg width="35" height="35" viewBox="0 0 35 35" fill="none" xmlns="http://www.w3.org/2000/svg">
<rect x="0.324219" y="0.935791" width="34" height="34" rx="8" fill="#23AAEB"/>
<path d="M18.7722 27.7899H12.0164C9.50473 27.7899 7.46973 25.7457 7.46973 23.2432V16.5332C7.46973 14.0216 9.51389 11.9866 12.0164 11.9866H18.7722C21.2839 11.9866 23.3189 14.0307 23.3189 16.5332V23.2432C23.3189 25.7457 21.2747 27.7899 18.7722 27.7899ZM12.0164 13.3616C10.2656 13.3616 8.84473 14.7824 8.84473 16.5332V23.2432C8.84473 24.9941 10.2656 26.4149 12.0164 26.4149H18.7722C20.5231 26.4149 21.9439 24.9941 21.9439 23.2432V16.5332C21.9439 14.7824 20.5231 13.3616 18.7722 13.3616H12.0164Z" fill="white"/>
<path d="M11.3662 11.29C10.9904 11.29 10.6787 10.9783 10.6787 10.6025V8.99829C10.6787 8.62246 10.9904 8.31079 11.3662 8.31079C11.742 8.31079 12.0537 8.62246 12.0537 8.99829V10.6025C12.0537 10.9783 11.742 11.29 11.3662 11.29Z" fill="white"/>
<path d="M15.0322 11.29C14.6564 11.29 14.3447 10.9783 14.3447 10.6025V8.99829C14.3447 8.62246 14.6564 8.31079 15.0322 8.31079C15.4081 8.31079 15.7197 8.62246 15.7197 8.99829V10.6025C15.7197 10.9783 15.4081 11.29 15.0322 11.29Z" fill="white"/>
<path d="M18.6992 11.29C18.3234 11.29 18.0117 10.9783 18.0117 10.6025V8.99829C18.0117 8.62246 18.3234 8.31079 18.6992 8.31079C19.0751 8.31079 19.3867 8.62246 19.3867 8.99829V10.6025C19.3867 10.9783 19.0751 11.29 18.6992 11.29Z" fill="white"/>
<path d="M22.6318 23.5457C22.256 23.5457 21.9443 23.2341 21.9443 22.8582V15.1399C21.9443 14.7641 22.256 14.4524 22.6318 14.4524C25.1435 14.4524 27.1785 16.4966 27.1785 18.9991C27.1785 21.5016 25.1343 23.5457 22.6318 23.5457ZM23.3193 15.9007V22.0974C24.7402 21.7857 25.8035 20.5116 25.8035 18.9991C25.8035 17.4866 24.7402 16.2124 23.3193 15.9007Z" fill="white"/>
<path d="M22.3747 18.6233H8.15723C7.78139 18.6233 7.46973 18.3116 7.46973 17.9358C7.46973 17.56 7.78139 17.2483 8.15723 17.2483H22.3747C22.7506 17.2483 23.0622 17.56 23.0622 17.9358C23.0622 18.3116 22.7506 18.6233 22.3747 18.6233Z" fill="white"/>
</svg>
