<svg width="24" height="25" viewBox="0 0 24 25" fill="none" xmlns="http://www.w3.org/2000/svg">
<path d="M17.45 23.5938C16.32 23.5938 15.13 23.3237 13.9 22.8037C12.7 22.2937 11.49 21.5938 10.31 20.7437C9.14 19.8837 8.01 18.9237 6.94 17.8738C5.88 16.8038 4.92 15.6737 4.07 14.5138C3.21 13.3138 2.52 12.1137 2.03 10.9537C1.51 9.71375 1.25 8.51375 1.25 7.38375C1.25 6.60375 1.39 5.86375 1.66 5.17375C1.94 4.46375 2.39 3.80375 3 3.23375C3.77 2.47375 4.65 2.09375 5.59 2.09375C5.98 2.09375 6.38 2.18375 6.72 2.34375C7.11 2.52375 7.44 2.79375 7.68 3.15375L10 6.42375C10.21 6.71375 10.37 6.99375 10.48 7.27375C10.61 7.57375 10.68 7.87375 10.68 8.16375C10.68 8.54375 10.57 8.91375 10.36 9.26375C10.21 9.53375 9.98 9.82375 9.69 10.1138L9.01 10.8237C9.02 10.8537 9.03 10.8737 9.04 10.8938C9.16 11.1038 9.4 11.4637 9.86 12.0037C10.35 12.5638 10.81 13.0737 11.27 13.5437C11.86 14.1237 12.35 14.5837 12.81 14.9637C13.38 15.4437 13.75 15.6838 13.97 15.7937L13.95 15.8438L14.68 15.1237C14.99 14.8137 15.29 14.5837 15.58 14.4338C16.13 14.0938 16.83 14.0337 17.53 14.3237C17.79 14.4337 18.07 14.5837 18.37 14.7937L21.69 17.1537C22.06 17.4037 22.33 17.7238 22.49 18.1038C22.64 18.4837 22.71 18.8337 22.71 19.1838C22.71 19.6637 22.6 20.1437 22.39 20.5938C22.18 21.0438 21.92 21.4338 21.59 21.7938C21.02 22.4237 20.4 22.8737 19.68 23.1637C18.99 23.4438 18.24 23.5938 17.45 23.5938ZM5.59 3.59375C5.04 3.59375 4.53 3.83375 4.04 4.31375C3.58 4.74375 3.26 5.21375 3.06 5.72375C2.85 6.24375 2.75 6.79375 2.75 7.38375C2.75 8.31375 2.97 9.32375 3.41 10.3638C3.86 11.4237 4.49 12.5237 5.29 13.6237C6.09 14.7238 7 15.7937 8 16.8038C9 17.7937 10.08 18.7138 11.19 19.5238C12.27 20.3138 13.38 20.9538 14.48 21.4137C16.19 22.1437 17.79 22.3137 19.11 21.7638C19.62 21.5538 20.07 21.2337 20.48 20.7738C20.71 20.5238 20.89 20.2537 21.04 19.9338C21.16 19.6838 21.22 19.4237 21.22 19.1637C21.22 19.0037 21.19 18.8438 21.11 18.6637C21.08 18.6038 21.02 18.4937 20.83 18.3638L17.51 16.0037C17.31 15.8637 17.13 15.7638 16.96 15.6938C16.74 15.6038 16.65 15.5138 16.31 15.7238C16.11 15.8238 15.93 15.9738 15.73 16.1737L14.97 16.9237C14.58 17.3038 13.98 17.3937 13.52 17.2237L13.25 17.1038C12.84 16.8837 12.36 16.5437 11.83 16.0938C11.35 15.6838 10.83 15.2037 10.2 14.5837C9.71 14.0837 9.22 13.5538 8.71 12.9637C8.24 12.4137 7.9 11.9438 7.69 11.5538L7.57 11.2537C7.51 11.0238 7.49 10.8938 7.49 10.7537C7.49 10.3938 7.62 10.0737 7.87 9.82375L8.62 9.04375C8.82 8.84375 8.97 8.65375 9.07 8.48375C9.15 8.35375 9.18 8.24375 9.18 8.14375C9.18 8.06375 9.15 7.94375 9.1 7.82375C9.03 7.66375 8.92 7.48375 8.78 7.29375L6.46 4.01375C6.36 3.87375 6.24 3.77375 6.09 3.70375C5.93 3.63375 5.76 3.59375 5.59 3.59375ZM13.95 15.8538L13.79 16.5337L14.06 15.8337C14.01 15.8237 13.97 15.8337 13.95 15.8538Z" fill="url(#paint0_linear_1796_48325)"/>
<defs>
<linearGradient id="paint0_linear_1796_48325" x1="11.98" y1="2.09375" x2="11.98" y2="23.5938" gradientUnits="userSpaceOnUse">
<stop stop-color="#1997E1"/>
<stop offset="1" stop-color="#2CB1FF"/>
</linearGradient>
</defs>
</svg>
