<svg width="24" height="25" viewBox="0 0 24 25" fill="none" xmlns="http://www.w3.org/2000/svg">
<path d="M17 22.0938H7C3.35 22.0938 1.25 19.9937 1.25 16.3438V9.34375C1.25 5.69375 3.35 3.59375 7 3.59375H17C20.65 3.59375 22.75 5.69375 22.75 9.34375V16.3438C22.75 19.9937 20.65 22.0938 17 22.0938ZM7 5.09375C4.14 5.09375 2.75 6.48375 2.75 9.34375V16.3438C2.75 19.2037 4.14 20.5938 7 20.5938H17C19.86 20.5938 21.25 19.2037 21.25 16.3438V9.34375C21.25 6.48375 19.86 5.09375 17 5.09375H7Z" fill="url(#paint0_linear_1796_48333)"/>
<path d="M11.9998 13.7137C11.1598 13.7137 10.3098 13.4537 9.65978 12.9237L6.52978 10.4237C6.20978 10.1637 6.14978 9.69372 6.40978 9.37372C6.66978 9.05372 7.13978 8.99372 7.45978 9.25372L10.5898 11.7537C11.3498 12.3637 12.6398 12.3637 13.3998 11.7537L16.5298 9.25372C16.8498 8.99372 17.3298 9.04372 17.5798 9.37372C17.8398 9.69372 17.7898 10.1737 17.4598 10.4237L14.3298 12.9237C13.6898 13.4537 12.8398 13.7137 11.9998 13.7137Z" fill="url(#paint1_linear_1796_48333)"/>
<defs>
<linearGradient id="paint0_linear_1796_48333" x1="12" y1="3.59375" x2="12" y2="22.0938" gradientUnits="userSpaceOnUse">
<stop stop-color="#1997E1"/>
<stop offset="1" stop-color="#2CB1FF"/>
</linearGradient>
<linearGradient id="paint1_linear_1796_48333" x1="11.9963" y1="9.08789" x2="11.9963" y2="13.7137" gradientUnits="userSpaceOnUse">
<stop stop-color="#1997E1"/>
<stop offset="1" stop-color="#2CB1FF"/>
</linearGradient>
</defs>
</svg>
