<svg width="27" height="27" viewBox="0 0 27 27" fill="none" xmlns="http://www.w3.org/2000/svg">
<g opacity="0.78">
<path opacity="0.2" d="M0.452148 13.9314C0.452148 21.1111 6.23801 26.9314 13.3752 26.9314C20.5125 26.9314 26.2983 21.1111 26.2983 13.9314C26.2983 6.7517 20.5125 0.931396 13.3752 0.931396C6.23801 0.931396 0.452148 6.7517 0.452148 13.9314Z" fill="#313030"/>
<path d="M18.7778 8.5674C19.0713 9.15962 18.8742 9.90227 18.3375 10.2261C16.8185 11.1427 15.392 13.0616 14.3027 14.9018C13.7718 15.7989 13.3458 16.6343 13.0529 17.245C12.9067 17.5497 12.7943 17.7971 12.7194 17.9662L12.6105 18.2173C12.4393 18.63 12.0749 18.9045 11.6642 18.9295C11.2534 18.9545 10.8638 18.7262 10.6526 18.3365C10.3084 17.7016 9.7615 17.122 9.25468 16.68C9.00842 16.4651 8.78675 16.2957 8.62857 16.1814L8.39564 16.0207C7.86453 15.6861 7.67959 14.9399 7.98259 14.3538C8.28566 13.7674 8.96213 13.5631 9.49351 13.8975L9.84247 14.1367C10.0443 14.2825 10.3211 14.4942 10.6286 14.7625C10.8637 14.9676 11.1265 15.2141 11.3918 15.4981C11.6763 14.9342 12.0318 14.2685 12.448 13.5652C13.5741 11.6626 15.249 9.30375 17.2746 8.08151C17.8113 7.75763 18.4843 7.97518 18.7778 8.5674Z" fill="#313030"/>
</g>
</svg>
